#N canvas 0 25 1440 847 12;
#X floatatom 600 71 5 0 0 0 - - -;
#X obj 544 239 counter 0 1 16;
#X obj 530 158 metro;
#X obj 611 99 expr 60/$f1*1000;
#X obj 530 124 tgl 30 0 empty empty empty 17 7 0 10 -260097 -1 -1 0
1;
#X obj 592 214 bng 15 250 50 0 empty empty empty 17 7 0 10 -262144
-1 -1;
#X obj 590 192 select 0;
#X obj 599 167 / 4;
#N canvas 0 214 936 556 heart 0;
#X obj 490 -36 inlet;
#X obj 70 105 select 1 2 3 4 5 6 7 8 9 10 11 12 13 14 15 16;
#X obj 36 221 vsl 15 128 0 1 0 0 empty empty empty 0 -9 0 10 -4034
-1 -1 12700 1;
#X obj 160 217 vsl 15 128 0 1 0 0 empty empty empty 0 -9 0 10 -4034
-1 -1 12700 1;
#X obj 278 219 vsl 15 128 0 1 0 0 empty empty empty 0 -9 0 10 -4034
-1 -1 12700 1;
#X obj 407 218 vsl 15 128 0 1 0 0 empty empty empty 0 -9 0 10 -4034
-1 -1 12700 1;
#X obj 63 222 vsl 15 128 0 1 0 0 empty empty empty 0 -9 0 10 -262144
-1 -1 0 1;
#X obj 95 219 vsl 15 128 0 1 0 0 empty empty empty 0 -9 0 10 -262144
-1 -1 0 1;
#X obj 131 219 vsl 15 128 0 1 0 0 empty empty empty 0 -9 0 10 -262144
-1 -1 0 1;
#X obj 191 217 vsl 15 128 0 1 0 0 empty empty empty 0 -9 0 10 -262144
-1 -1 0 1;
#X obj 219 216 vsl 15 128 0 1 0 0 empty empty empty 0 -9 0 10 -262144
-1 -1 0 1;
#X obj 249 216 vsl 15 128 0 1 0 0 empty empty empty 0 -9 0 10 -262144
-1 -1 0 1;
#X obj 304 220 vsl 15 128 0 1 0 0 empty empty empty 0 -9 0 10 -262144
-1 -1 0 1;
#X obj 336 219 vsl 15 128 0 1 0 0 empty empty empty 0 -9 0 10 -262144
-1 -1 0 1;
#X obj 372 221 vsl 15 128 0 1 0 0 empty empty empty 0 -9 0 10 -262144
-1 -1 0 1;
#X obj 436 219 vsl 15 128 0 1 0 0 empty empty empty 0 -9 0 10 -262144
-1 -1 0 1;
#X obj 470 218 vsl 15 128 0 1 0 0 empty empty empty 0 -9 0 10 -262144
-1 -1 0 1;
#X obj 504 222 vsl 15 128 0 1 0 0 empty empty empty 0 -9 0 10 -262144
-1 -1 0 1;
#X obj 36 173 bng 15 250 50 0 empty empty empty 17 7 0 10 -262144 -1
-1;
#X obj 62 182 bng 15 250 50 0 empty empty empty 17 7 0 10 -262144 -1
-1;
#X obj 120 183 bng 15 250 50 0 empty empty empty 17 7 0 10 -262144
-1 -1;
#X obj 93 189 bng 15 250 50 0 empty empty empty 17 7 0 10 -262144 -1
-1;
#X obj 161 176 bng 15 250 50 0 empty empty empty 17 7 0 10 -262144
-1 -1;
#X obj 191 179 bng 15 250 50 0 empty empty empty 17 7 0 10 -262144
-1 -1;
#X obj 218 179 bng 15 250 50 0 empty empty empty 17 7 0 10 -262144
-1 -1;
#X obj 249 178 bng 15 250 50 0 empty empty empty 17 7 0 10 -262144
-1 -1;
#X obj 276 181 bng 15 250 50 0 empty empty empty 17 7 0 10 -262144
-1 -1;
#X obj 304 181 bng 15 250 50 0 empty empty empty 17 7 0 10 -262144
-1 -1;
#X obj 335 179 bng 15 250 50 0 empty empty empty 17 7 0 10 -262144
-1 -1;
#X obj 370 178 bng 15 250 50 0 empty empty empty 17 7 0 10 -262144
-1 -1;
#X obj 404 177 bng 15 250 50 0 empty empty empty 17 7 0 10 -262144
-1 -1;
#X obj 438 175 bng 15 250 50 0 empty empty empty 17 7 0 10 -262144
-1 -1;
#X obj 470 178 bng 15 250 50 0 empty empty empty 17 7 0 10 -262144
-1 -1;
#X obj 502 183 bng 15 250 50 0 empty empty empty 17 7 0 10 -262144
-1 -1;
#X obj 421 81 loadbang;
#X msg 421 104 1;
#X obj 271 405 send heart;
#X obj 698 258 osc~;
#X obj 698 289 *~;
#X obj 665 85 tgl 15 0 empty empty empty 17 7 0 10 -262144 -1 -1 0
1;
#X obj 750 86 delay 25;
#X obj 749 62 select 1;
#X obj 619 186 noise~;
#X obj 661 247 *~;
#X obj 619 211 lop~ 500;
#X obj 489 1 bng 15 250 50 0 empty empty empty 17 7 0 10 -262144 -1
-1;
#X obj 784 261 adsr 10 30 5 50 100;
#X obj 661 351 freeverb~;
#X msg 561 270 roomsize 0.2;
#X text 700 207 kick freq;
#X obj 726 121 r heart;
#X obj 534 244 loadbang;
#X obj 661 380 outlet~;
#X obj 698 230 r heartPitch;
#X floatatom 805 184 5 0 0 0 - - -;
#X obj 125 -30 sel 0 1;
#X msg 562 294 wet 0.3;
#X msg 563 317 dry 0.7;
#X obj 196 -28 sel 0 1;
#X msg 192 1 0;
#X msg 229 1 1;
#X msg 147 4 1;
#X msg 108 3 0;
#X msg 274 55 0;
#X obj 661 314 clip~ -2 2;
#X obj 676 172 adsr 10 3 2 1 5;
#X connect 0 0 45 0;
#X connect 0 0 1 0;
#X connect 1 0 18 0;
#X connect 1 1 19 0;
#X connect 1 2 21 0;
#X connect 1 3 20 0;
#X connect 1 4 22 0;
#X connect 1 5 23 0;
#X connect 1 6 24 0;
#X connect 1 7 25 0;
#X connect 1 8 26 0;
#X connect 1 9 27 0;
#X connect 1 10 28 0;
#X connect 1 11 29 0;
#X connect 1 12 30 0;
#X connect 1 13 31 0;
#X connect 1 14 32 0;
#X connect 1 15 33 0;
#X connect 2 0 36 0;
#X connect 3 0 36 0;
#X connect 4 0 36 0;
#X connect 5 0 36 0;
#X connect 6 0 36 0;
#X connect 7 0 36 0;
#X connect 8 0 36 0;
#X connect 9 0 36 0;
#X connect 10 0 36 0;
#X connect 11 0 36 0;
#X connect 12 0 36 0;
#X connect 13 0 36 0;
#X connect 14 0 36 0;
#X connect 15 0 36 0;
#X connect 16 0 36 0;
#X connect 17 0 36 0;
#X connect 18 0 2 0;
#X connect 19 0 6 0;
#X connect 20 0 8 0;
#X connect 21 0 7 0;
#X connect 22 0 3 0;
#X connect 23 0 9 0;
#X connect 24 0 10 0;
#X connect 25 0 11 0;
#X connect 26 0 4 0;
#X connect 27 0 12 0;
#X connect 28 0 13 0;
#X connect 29 0 14 0;
#X connect 30 0 5 0;
#X connect 31 0 15 0;
#X connect 32 0 16 0;
#X connect 33 0 17 0;
#X connect 34 0 35 0;
#X connect 35 0 2 0;
#X connect 35 0 3 0;
#X connect 35 0 4 0;
#X connect 35 0 5 0;
#X connect 37 0 38 0;
#X connect 38 0 64 0;
#X connect 39 0 41 0;
#X connect 39 0 46 0;
#X connect 39 0 65 0;
#X connect 40 0 39 0;
#X connect 41 0 40 0;
#X connect 42 0 44 0;
#X connect 43 0 64 0;
#X connect 44 0 43 0;
#X connect 45 0 39 0;
#X connect 46 0 38 1;
#X connect 47 0 52 0;
#X connect 48 0 47 0;
#X connect 50 0 46 1;
#X connect 50 0 65 1;
#X connect 51 0 48 0;
#X connect 51 0 56 0;
#X connect 51 0 57 0;
#X connect 53 0 37 0;
#X connect 54 0 37 0;
#X connect 55 0 62 0;
#X connect 55 1 61 0;
#X connect 56 0 47 0;
#X connect 57 0 47 0;
#X connect 58 0 59 0;
#X connect 58 1 60 0;
#X connect 58 1 63 0;
#X connect 59 0 7 0;
#X connect 59 0 10 0;
#X connect 59 0 11 0;
#X connect 59 0 13 0;
#X connect 60 0 11 0;
#X connect 60 0 10 0;
#X connect 60 0 13 0;
#X connect 60 0 2 0;
#X connect 60 0 7 0;
#X connect 61 0 3 0;
#X connect 61 0 4 0;
#X connect 61 0 5 0;
#X connect 63 0 3 0;
#X connect 63 0 4 0;
#X connect 63 0 5 0;
#X connect 64 0 47 0;
#X connect 64 0 47 1;
#X connect 65 0 43 1;
#X restore 450 273 pd heart;
#X text 639 71 Main TEMPO;
#N canvas 271 193 1054 573 hat 0;
#X obj 543 -4 inlet;
#X obj 80 115 select 1 2 3 4 5 6 7 8 9 10 11 12 13 14 15 16;
#X obj 50 231 vsl 15 128 0 1 0 0 empty empty empty 0 -9 0 10 -260097
-1 -1 0 1;
#X obj 170 227 vsl 15 128 0 1 0 0 empty empty empty 0 -9 0 10 -260097
-1 -1 0 1;
#X obj 288 229 vsl 15 128 0 1 0 0 empty empty empty 0 -9 0 10 -260097
-1 -1 0 1;
#X obj 417 228 vsl 15 128 0 1 0 0 empty empty empty 0 -9 0 10 -260097
-1 -1 0 1;
#X obj 73 232 vsl 15 128 0 1 0 0 empty empty empty 0 -9 0 10 -262144
-1 -1 12700 1;
#X obj 105 229 vsl 15 128 0 1 0 0 empty empty empty 0 -9 0 10 -262144
-1 -1 0 1;
#X obj 141 229 vsl 15 128 0 1 0 0 empty empty empty 0 -9 0 10 -262144
-1 -1 0 1;
#X obj 201 227 vsl 15 128 0 1 0 0 empty empty empty 0 -9 0 10 -262144
-1 -1 0 1;
#X obj 229 226 vsl 15 128 0 1 0 0 empty empty empty 0 -9 0 10 -262144
-1 -1 12700 1;
#X obj 259 226 vsl 15 128 0 1 0 0 empty empty empty 0 -9 0 10 -262144
-1 -1 0 1;
#X obj 314 230 vsl 15 128 0 1 0 0 empty empty empty 0 -9 0 10 -262144
-1 -1 0 1;
#X obj 346 229 vsl 15 128 0 1 0 0 empty empty empty 0 -9 0 10 -262144
-1 -1 12700 1;
#X obj 382 231 vsl 15 128 0 1 0 0 empty empty empty 0 -9 0 10 -262144
-1 -1 0 1;
#X obj 446 229 vsl 15 128 0 1 0 0 empty empty empty 0 -9 0 10 -262144
-1 -1 0 1;
#X obj 480 228 vsl 15 128 0 1 0 0 empty empty empty 0 -9 0 10 -262144
-1 -1 0 1;
#X obj 514 232 vsl 15 128 0 1 0 0 empty empty empty 0 -9 0 10 -262144
-1 -1 12700 1;
#X obj 46 183 bng 15 250 50 0 empty empty empty 17 7 0 10 -262144 -1
-1;
#X obj 72 192 bng 15 250 50 0 empty empty empty 17 7 0 10 -262144 -1
-1;
#X obj 130 193 bng 15 250 50 0 empty empty empty 17 7 0 10 -262144
-1 -1;
#X obj 103 199 bng 15 250 50 0 empty empty empty 17 7 0 10 -262144
-1 -1;
#X obj 171 186 bng 15 250 50 0 empty empty empty 17 7 0 10 -262144
-1 -1;
#X obj 201 189 bng 15 250 50 0 empty empty empty 17 7 0 10 -262144
-1 -1;
#X obj 228 189 bng 15 250 50 0 empty empty empty 17 7 0 10 -262144
-1 -1;
#X obj 259 188 bng 15 250 50 0 empty empty empty 17 7 0 10 -262144
-1 -1;
#X obj 286 191 bng 15 250 50 0 empty empty empty 17 7 0 10 -262144
-1 -1;
#X obj 314 191 bng 15 250 50 0 empty empty empty 17 7 0 10 -262144
-1 -1;
#X obj 345 189 bng 15 250 50 0 empty empty empty 17 7 0 10 -262144
-1 -1;
#X obj 380 188 bng 15 250 50 0 empty empty empty 17 7 0 10 -262144
-1 -1;
#X obj 414 187 bng 15 250 50 0 empty empty empty 17 7 0 10 -262144
-1 -1;
#X obj 448 185 bng 15 250 50 0 empty empty empty 17 7 0 10 -262144
-1 -1;
#X obj 480 188 bng 15 250 50 0 empty empty empty 17 7 0 10 -262144
-1 -1;
#X obj 512 193 bng 15 250 50 0 empty empty empty 17 7 0 10 -262144
-1 -1;
#X obj 371 64 loadbang;
#X msg 373 88 1;
#X obj 543 37 bng 15 250 50 0 empty empty empty 17 7 0 10 -262144 -1
-1;
#X obj 679 493 freeverb~;
#X obj 563 415 loadbang;
#X obj 679 525 outlet~;
#X obj 282 415 send hat;
#X obj 701 370 *~;
#X obj 652 119 tgl 15 0 empty empty empty 17 7 0 10 -262144 -1 -1 0
1;
#X obj 710 133 delay 25;
#X obj 709 108 select 1;
#X obj 681 251 noise~;
#X obj 681 332 *~;
#X obj 752 230 noise~;
#X obj 681 278 lop~ 500;
#X obj 548 246 noise~;
#X obj 548 322 *~;
#X obj 752 256 lop~ 250;
#X obj 595 355 lop~ 3500;
#X obj 563 291 adsr 1 20 5 40 70;
#X obj 696 305 adsr 1 3 2 1 70;
#X obj 801 305 adsr 2 20 5 50 70;
#X obj 826 199 r hat;
#X obj 679 463 clip~ -0.5 0.5;
#X obj 679 425 +~;
#X obj 717 426 *~ 0.35;
#X obj 734 405 delread~ hat 100;
#X msg 591 465 wet 0.5;
#X msg 592 488 dry 0.5;
#X msg 591 441 roomsize 0.4;
#X obj 779 462 delwrite~ hat 2000;
#X obj 734 379 r e1;
#X obj 505 79 ctlin 53;
#X obj 505 114 sel 0 1;
#X msg 481 150 0.8;
#X msg 408 90 0;
#X connect 0 0 1 0;
#X connect 0 0 36 0;
#X connect 1 0 18 0;
#X connect 1 1 19 0;
#X connect 1 2 21 0;
#X connect 1 3 20 0;
#X connect 1 4 22 0;
#X connect 1 5 23 0;
#X connect 1 6 24 0;
#X connect 1 7 25 0;
#X connect 1 8 26 0;
#X connect 1 9 27 0;
#X connect 1 10 28 0;
#X connect 1 11 29 0;
#X connect 1 12 30 0;
#X connect 1 13 31 0;
#X connect 1 14 32 0;
#X connect 1 15 33 0;
#X connect 2 0 40 0;
#X connect 3 0 40 0;
#X connect 4 0 40 0;
#X connect 5 0 40 0;
#X connect 6 0 40 0;
#X connect 7 0 40 0;
#X connect 8 0 40 0;
#X connect 9 0 40 0;
#X connect 10 0 40 0;
#X connect 11 0 40 0;
#X connect 12 0 40 0;
#X connect 13 0 40 0;
#X connect 14 0 40 0;
#X connect 15 0 40 0;
#X connect 16 0 40 0;
#X connect 17 0 40 0;
#X connect 18 0 2 0;
#X connect 19 0 6 0;
#X connect 20 0 8 0;
#X connect 21 0 7 0;
#X connect 22 0 3 0;
#X connect 23 0 9 0;
#X connect 24 0 10 0;
#X connect 25 0 11 0;
#X connect 26 0 4 0;
#X connect 27 0 12 0;
#X connect 28 0 13 0;
#X connect 29 0 14 0;
#X connect 30 0 5 0;
#X connect 31 0 15 0;
#X connect 32 0 16 0;
#X connect 33 0 17 0;
#X connect 34 0 35 0;
#X connect 35 0 10 0;
#X connect 35 0 13 0;
#X connect 35 0 6 0;
#X connect 35 0 17 0;
#X connect 36 0 42 0;
#X connect 37 0 39 0;
#X connect 38 0 63 0;
#X connect 38 0 61 0;
#X connect 38 0 62 0;
#X connect 41 0 58 0;
#X connect 42 0 44 0;
#X connect 42 0 53 0;
#X connect 42 0 54 0;
#X connect 42 0 55 0;
#X connect 43 0 42 0;
#X connect 44 0 43 0;
#X connect 45 0 48 0;
#X connect 46 0 58 0;
#X connect 47 0 51 0;
#X connect 48 0 46 0;
#X connect 49 0 50 0;
#X connect 50 0 52 0;
#X connect 51 0 41 0;
#X connect 52 0 58 0;
#X connect 53 0 50 1;
#X connect 54 0 46 1;
#X connect 55 0 41 1;
#X connect 56 0 55 1;
#X connect 56 0 54 1;
#X connect 56 0 53 1;
#X connect 57 0 37 0;
#X connect 58 0 57 0;
#X connect 58 0 64 0;
#X connect 59 0 58 1;
#X connect 60 0 59 0;
#X connect 61 0 37 0;
#X connect 62 0 37 0;
#X connect 63 0 37 0;
#X connect 65 0 60 0;
#X connect 66 0 67 0;
#X connect 67 0 35 0;
#X connect 67 0 69 0;
#X connect 67 1 68 0;
#X connect 68 0 4 0;
#X connect 68 0 12 0;
#X connect 68 0 5 0;
#X connect 68 0 8 0;
#X connect 68 0 3 0;
#X connect 69 0 5 0;
#X connect 69 0 4 0;
#X connect 69 0 12 0;
#X connect 69 0 3 0;
#X connect 69 0 8 0;
#X restore 547 273 pd hat;
#N canvas 0 23 961 855 sampler 0;
#X floatatom 516 288 5 0 0 0 - - -;
#X obj 516 315 s samp_speed;
#X floatatom 332 240 5 0 0 0 - - -;
#X obj 332 267 s grain_speed;
#X floatatom 155 241 5 0 0 0 - - -;
#X obj 155 268 s grain_length;
#X msg 565 264 1;
#X msg 563 293 -1;
#X msg 380 229 1;
#X floatatom 245 334 8 0 0 0 - - -;
#X obj 89 318 tgl 20 0 empty empty Play 0 -10 0 12 -203904 -1 -1 0
1;
#X floatatom 176 359 5 0 0 0 - grain_speed -;
#X floatatom 132 358 5 0 0 0 - grain_length -;
#N canvas 742 292 405 330 samp_phasor 0;
#X obj 182 59 expr 44100 / $f1;
#X obj 145 211 phasor~;
#X obj 153 242 *~;
#X obj 124 140 *;
#X obj 124 182 *;
#X obj 51 133 bng 15 250 50 0 empty empty empty 17 7 0 10 -262144 -1
-1;
#X msg 184 141 0;
#X obj 124 30 inlet;
#X obj 168 30 inlet;
#X obj 315 18 inlet;
#X obj 315 46 s pb_speed;
#X obj 51 103 r pb_speed;
#X obj 153 270 outlet~;
#X floatatom 14 170 5 0 0 0 - - -;
#X connect 0 0 3 1;
#X connect 1 0 2 0;
#X connect 2 0 12 0;
#X connect 3 0 4 0;
#X connect 4 0 1 0;
#X connect 5 0 4 0;
#X connect 6 0 1 1;
#X connect 7 0 3 0;
#X connect 7 0 6 0;
#X connect 8 0 0 0;
#X connect 8 0 2 1;
#X connect 9 0 10 0;
#X connect 11 0 4 1;
#X connect 11 0 5 0;
#X connect 11 0 13 0;
#X restore 205 387 pd samp_phasor;
#X floatatom 286 361 5 0 0 0 - samp_speed -;
#N canvas 56 344 531 511 grain_phasor 0;
#X obj 218 77 expr 44100 / $f1;
#X obj 189 229 phasor~;
#X obj 189 381 *~;
#X obj 160 158 *;
#X obj 160 200 *;
#X obj 87 151 bng 15 250 50 0 empty empty empty 17 7 0 10 -262144 -1
-1;
#X msg 220 159 0;
#X obj 160 48 inlet;
#X obj 204 48 inlet;
#X obj 326 48 inlet;
#X obj 189 408 outlet~;
#X obj 240 408 outlet~;
#X obj 295 291 +~ 0.5;
#X obj 295 315 wrap~;
#X obj 295 380 *~;
#X obj 295 408 outlet~;
#X obj 346 408 outlet~;
#X floatatom 24 180 5 0 0 0 - - -;
#X obj 326 76 s g_speed;
#X obj 87 121 r g_speed;
#X connect 0 0 3 1;
#X connect 1 0 2 0;
#X connect 1 0 11 0;
#X connect 1 0 12 0;
#X connect 2 0 10 0;
#X connect 3 0 4 0;
#X connect 4 0 1 0;
#X connect 5 0 4 0;
#X connect 6 0 1 1;
#X connect 7 0 3 0;
#X connect 7 0 6 0;
#X connect 8 0 0 0;
#X connect 8 0 2 1;
#X connect 8 0 14 1;
#X connect 9 0 18 0;
#X connect 12 0 13 0;
#X connect 13 0 14 0;
#X connect 13 0 16 0;
#X connect 14 0 15 0;
#X connect 19 0 4 1;
#X connect 19 0 5 0;
#X connect 19 0 17 0;
#X restore 89 384 pd grain_phasor;
#N canvas 840 327 421 362 tabreads 0;
#X obj 54 139 +~;
#X obj 54 226 *~;
#X obj 142 93 samphold~;
#X obj 54 48 inlet~;
#X obj 98 48 inlet~;
#X obj 142 48 inlet~;
#X obj 54 254 outlet~;
#N canvas 0 22 450 300 (subpatch) 0;
#X array hanning 255 float 1;
#A 0 0 0.000150591 0.000602275 0.00135478 0.00240764 0.00376022 0.00541174
0.00736117 0.00960734 0.0121489 0.0149843 0.0181119 0.0215298 0.0252359
0.0292279 0.0335035 0.0380601 0.042895 0.0480052 0.0533877 0.0590392
0.0649563 0.0711355 0.077573 0.084265 0.0912073 0.0983959 0.105826
0.113494 0.121395 0.129524 0.137876 0.146446 0.155229 0.16422 0.173413
0.182803 0.192384 0.20215 0.212095 0.222214 0.2325 0.242948 0.25355
0.264301 0.275194 0.286222 0.297379 0.308658 0.320052 0.331555 0.343159
0.354857 0.366643 0.378509 0.390449 0.402454 0.414519 0.426634 0.438794
0.450991 0.463218 0.475466 0.487729 0.5 0.512271 0.524534 0.536782
0.549009 0.561205 0.573365 0.585481 0.597545 0.609551 0.62149 0.633357
0.645143 0.656841 0.679948 0.691342 0.702621 0.713778 0.724806 0.735699
0.74645 0.757052 0.767499 0.777786 0.787905 0.79785 0.807616 0.817197
0.826587 0.83578 0.844771 0.853554 0.862124 0.870476 0.878605 0.886506
0.894174 0.901605 0.908793 0.915736 0.922428 0.928865 0.935044 0.940961
0.946613 0.951995 0.957106 0.96194 0.966497 0.970773 0.974765 0.978471
0.981889 0.985016 0.987852 0.990393 0.992639 0.994589 0.99624 0.997593
0.998645 0.999398 0.999849 1 0.999849 0.999398 0.998645 0.997592 0.996239
0.994588 0.992638 0.990392 0.987851 0.985015 0.981887 0.978469 0.974763
0.970771 0.966495 0.961939 0.957104 0.951993 0.946611 0.940959 0.935042
0.928863 0.922425 0.915733 0.908791 0.901602 0.894171 0.886503 0.878602
0.870473 0.862121 0.853551 0.844768 0.835777 0.826584 0.817194 0.807613
0.797847 0.787901 0.777782 0.767496 0.757048 0.746446 0.735695 0.724802
0.713774 0.702617 0.691338 0.679944 0.668441 0.656837 0.645139 0.633353
0.621486 0.609547 0.597541 0.585477 0.573361 0.561201 0.549004 0.536778
0.52453 0.512266 0.499996 0.487725 0.475462 0.463213 0.450987 0.43879
0.42663 0.414515 0.40245 0.390445 0.378505 0.366639 0.354853 0.343155
0.331551 0.320048 0.308654 0.297375 0.286218 0.27519 0.264297 0.253547
0.242944 0.232497 0.222211 0.212092 0.202146 0.19238 0.182799 0.17341
0.164217 0.155226 0.146443 0.137873 0.129521 0.121392 0.113491 0.105823
0.0983929 0.0912044 0.0842621 0.0775702 0.0711328 0.0649537 0.0590367
0.0533853 0.0480029 0.0428928 0.038058 0.0335015 0.029226 0.025234
0.0215281 0.0181104 0.0149829 0.0121476 0.00960615 0.0073601 0.00541082
0.00375944 0.00240701 0.00135431 0.000601947 0.000150442;
#X coords 0 1 254 0 40 30 1;
#X restore 234 207 graph;
#X obj 201 169 tabread4~ hanning;
#X obj 309 117 r b2;
#X obj 310 145 r b1;
#X obj 54 169 tabread4~ sampler;
#X msg 213 148 set sampler;
#X msg 212 130 set sampler2;
#X msg 214 102 set sampler3;
#X obj 313 87 r b3;
#X connect 0 0 11 0;
#X connect 1 0 6 0;
#X connect 2 0 0 1;
#X connect 3 0 0 0;
#X connect 3 0 8 0;
#X connect 4 0 2 1;
#X connect 5 0 2 0;
#X connect 8 0 1 1;
#X connect 9 0 13 0;
#X connect 10 0 12 0;
#X connect 11 0 1 0;
#X connect 11 0 6 0;
#X connect 12 0 11 0;
#X connect 13 0 11 0;
#X connect 14 0 11 0;
#X connect 15 0 14 0;
#X restore 89 445 pd tabreads;
#N canvas 570 413 421 362 tabreads 0;
#X obj 54 139 +~;
#X obj 54 226 *~;
#X obj 142 93 samphold~;
#X obj 54 48 inlet~;
#X obj 98 48 inlet~;
#X obj 142 48 inlet~;
#X obj 54 254 outlet~;
#N canvas 0 22 450 300 (subpatch) 0;
#X array hanning 255 float 1;
#A 0 0 0.000150591 0.000602275 0.00135478 0.00240764 0.00376022 0.00541174
0.00736117 0.00960734 0.0121489 0.0149843 0.0181119 0.0215298 0.0252359
0.0292279 0.0335035 0.0380601 0.042895 0.0480052 0.0533877 0.0590392
0.0649563 0.0711355 0.077573 0.084265 0.0912073 0.0983959 0.105826
0.113494 0.121395 0.129524 0.137876 0.146446 0.155229 0.16422 0.173413
0.182803 0.192384 0.20215 0.212095 0.222214 0.2325 0.242948 0.25355
0.264301 0.275194 0.286222 0.297379 0.308658 0.320052 0.331555 0.343159
0.354857 0.366643 0.378509 0.390449 0.402454 0.414519 0.426634 0.438794
0.450991 0.463218 0.475466 0.487729 0.5 0.512271 0.524534 0.536782
0.549009 0.561205 0.573365 0.585481 0.597545 0.609551 0.62149 0.633357
0.645143 0.656841 0.679948 0.691342 0.702621 0.713778 0.724806 0.735699
0.74645 0.757052 0.767499 0.777786 0.787905 0.79785 0.807616 0.817197
0.826587 0.83578 0.844771 0.853554 0.862124 0.870476 0.878605 0.886506
0.894174 0.901605 0.908793 0.915736 0.922428 0.928865 0.935044 0.940961
0.946613 0.951995 0.957106 0.96194 0.966497 0.970773 0.974765 0.978471
0.981889 0.985016 0.987852 0.990393 0.992639 0.994589 0.99624 0.997593
0.998645 0.999398 0.999849 1 0.999849 0.999398 0.998645 0.997592 0.996239
0.994588 0.992638 0.990392 0.987851 0.985015 0.981887 0.978469 0.974763
0.970771 0.966495 0.961939 0.957104 0.951993 0.946611 0.940959 0.935042
0.928863 0.922425 0.915733 0.908791 0.901602 0.894171 0.886503 0.878602
0.870473 0.862121 0.853551 0.844768 0.835777 0.826584 0.817194 0.807613
0.797847 0.787901 0.777782 0.767496 0.757048 0.746446 0.735695 0.724802
0.713774 0.702617 0.691338 0.679944 0.668441 0.656837 0.645139 0.633353
0.621486 0.609547 0.597541 0.585477 0.573361 0.561201 0.549004 0.536778
0.52453 0.512266 0.499996 0.487725 0.475462 0.463213 0.450987 0.43879
0.42663 0.414515 0.40245 0.390445 0.378505 0.366639 0.354853 0.343155
0.331551 0.320048 0.308654 0.297375 0.286218 0.27519 0.264297 0.253547
0.242944 0.232497 0.222211 0.212092 0.202146 0.19238 0.182799 0.17341
0.164217 0.155226 0.146443 0.137873 0.129521 0.121392 0.113491 0.105823
0.0983929 0.0912044 0.0842621 0.0775702 0.0711328 0.0649537 0.0590367
0.0533853 0.0480029 0.0428928 0.038058 0.0335015 0.029226 0.025234
0.0215281 0.0181104 0.0149829 0.0121476 0.00960615 0.0073601 0.00541082
0.00375944 0.00240701 0.00135431 0.000601947 0.000150442;
#X coords 0 1 256 0 40 30 1;
#X restore 222 210 graph;
#X obj 201 169 tabread4~ hanning;
#X msg 205 127 set sampler2;
#X msg 206 147 set sampler;
#X obj 54 169 tabread4~ sampler;
#X msg 209 101 set sampler3;
#X obj 367 142 r b1;
#X obj 367 114 r b2;
#X obj 366 89 r b3;
#X connect 0 0 11 0;
#X connect 1 0 6 0;
#X connect 2 0 0 1;
#X connect 3 0 0 0;
#X connect 3 0 8 0;
#X connect 4 0 2 1;
#X connect 5 0 2 0;
#X connect 8 0 1 1;
#X connect 9 0 11 0;
#X connect 10 0 11 0;
#X connect 11 0 1 0;
#X connect 12 0 11 0;
#X connect 13 0 10 0;
#X connect 14 0 9 0;
#X connect 15 0 12 0;
#X restore 167 444 pd tabreads;
#X obj 344 45 bng 20 250 50 0 empty empty Reset 25 10 0 12 -203904
-1 -1;
#X obj 245 308 r read_file;
#X msg 155 205 256;
#X obj 58 66 r beta;
#X obj 701 155 r alpha;
#X obj 269 121 r gamma;
#X floatatom 719 191 10 0 0 0 - - -;
#X obj 57 100 * 200;
#X obj 73 636 outlet~;
#X obj 717 223 * -4;
#X obj 651 95 tgl 20 0 empty empty empty 17 7 0 10 -257985 -1 -1 0
1;
#X obj 701 250 gate;
#X obj 235 188 gate;
#X obj 21 145 gate;
#X obj 650 122 s b;
#X obj 685 225 r b;
#X obj 233 159 r b;
#X obj 22 120 r b;
#X obj 604 278 ctlin 69;
#X obj 347 3 ctlin 51;
#X obj 21 244 inlet;
#X obj 655 61 ctlin 55;
#X obj 517 99 r ss;
#X obj 399 74 r gs;
#X obj 109 37 r gl;
#X obj 566 215 mknob 25 100 -5 5 0 0 empty empty Sample_Speed 20 -10
0 8 -135168 -1 -258112 0 1;
#X obj 335 195 mknob 25 100 -5 5 0 0 empty empty Grain_Speed 20 -10
0 8 -135168 -1 -258112 0 1;
#X obj 84 181 mknob 25 100 1 4410 0 0 empty empty Grain_Length 20 -10
0 8 -135168 -1 -258112 0 1;
#X obj 271 150 * 5;
#X obj 526 132 / 127;
#X obj 526 156 * 10;
#X obj 526 180 - 5;
#X obj 400 97 / 127;
#X obj 400 121 * 10;
#X obj 400 145 - 5;
#X obj 106 99 * 4410;
#X obj 106 123 + 1;
#X obj 106 75 / 127.5;
#X connect 0 0 1 0;
#X connect 2 0 3 0;
#X connect 4 0 5 0;
#X connect 6 0 0 0;
#X connect 7 0 0 0;
#X connect 8 0 2 0;
#X connect 9 0 13 1;
#X connect 10 0 13 0;
#X connect 10 0 15 0;
#X connect 11 0 15 2;
#X connect 12 0 15 1;
#X connect 13 0 16 2;
#X connect 13 0 17 2;
#X connect 14 0 13 2;
#X connect 15 0 16 0;
#X connect 15 1 16 1;
#X connect 15 2 17 0;
#X connect 15 3 17 1;
#X connect 16 0 26 0;
#X connect 17 0 26 0;
#X connect 18 0 20 0;
#X connect 18 0 8 0;
#X connect 18 0 6 0;
#X connect 19 0 9 0;
#X connect 20 0 4 0;
#X connect 21 0 25 0;
#X connect 22 0 24 0;
#X connect 22 0 27 0;
#X connect 23 0 46 0;
#X connect 25 0 31 1;
#X connect 27 0 29 1;
#X connect 28 0 32 0;
#X connect 29 0 43 0;
#X connect 30 0 44 0;
#X connect 31 0 45 0;
#X connect 33 0 29 0;
#X connect 34 0 30 0;
#X connect 35 0 31 0;
#X connect 36 0 7 0;
#X connect 37 0 18 0;
#X connect 38 0 10 0;
#X connect 39 0 28 0;
#X connect 40 0 47 0;
#X connect 41 0 50 0;
#X connect 42 0 55 0;
#X connect 43 0 0 0;
#X connect 44 0 2 0;
#X connect 45 0 4 0;
#X connect 46 0 30 1;
#X connect 47 0 48 0;
#X connect 48 0 49 0;
#X connect 49 0 43 0;
#X connect 50 0 51 0;
#X connect 51 0 52 0;
#X connect 52 0 44 0;
#X connect 53 0 54 0;
#X connect 54 0 45 0;
#X connect 55 0 53 0;
#X restore 330 270 pd sampler;
#X obj 42 431 *~;
#X obj 74 321 vsl 15 120 0 1 0 0 empty s1 empty 0 -9 0 10 -69785 -228856
-228856 0 1;
#N canvas 0 243 859 413 brainwaves 0;
#X obj 111 70 unpackOSC;
#X obj 111 97 routeOSC /brainwaves;
#X obj 109 122 unpack f f f f f f;
#X obj 21 185 line;
#X msg 21 157 \$1 250;
#X floatatom 23 218 5 0 0 0 - - -;
#X floatatom 94 217 5 0 0 0 - - -;
#X floatatom 147 216 5 0 0 0 - - -;
#X floatatom 216 216 5 0 0 0 - - -;
#X floatatom 288 215 5 0 0 0 - - -;
#X floatatom 354 216 5 0 0 0 - - -;
#X obj 1 254 s delta;
#X obj 97 248 s theta;
#X obj 163 249 s alpha;
#X obj 236 249 s beta;
#X obj 298 246 s gamma;
#X obj 385 243 s mellow;
#X obj 92 185 line;
#X msg 92 157 \$1 250;
#X obj 152 182 line;
#X msg 152 156 \$1 250;
#X obj 217 191 line;
#X msg 217 163 \$1 250;
#X obj 284 186 line;
#X msg 284 158 \$1 250;
#X obj 350 190 line;
#X msg 350 162 \$1 250;
#X obj 664 62 udpreceive 12000;
#X obj 664 88 unpackOSC;
#X obj 664 115 routeOSC /wekinator;
#X obj 664 140 unpack f f;
#X floatatom 651 181 5 0 0 0 - - -;
#X floatatom 736 185 5 0 0 0 - - -;
#X obj 111 38 udpreceive 7321;
#X obj 627 234 s wekin;
#X connect 0 0 1 0;
#X connect 1 0 2 0;
#X connect 2 0 4 0;
#X connect 2 1 18 0;
#X connect 2 2 20 0;
#X connect 2 3 22 0;
#X connect 2 4 24 0;
#X connect 2 5 26 0;
#X connect 3 0 5 0;
#X connect 4 0 3 0;
#X connect 5 0 11 0;
#X connect 6 0 12 0;
#X connect 7 0 13 0;
#X connect 8 0 14 0;
#X connect 9 0 15 0;
#X connect 10 0 16 0;
#X connect 17 0 6 0;
#X connect 18 0 17 0;
#X connect 19 0 7 0;
#X connect 20 0 19 0;
#X connect 21 0 8 0;
#X connect 22 0 21 0;
#X connect 23 0 9 0;
#X connect 24 0 23 0;
#X connect 25 0 10 0;
#X connect 26 0 25 0;
#X connect 27 0 28 0;
#X connect 28 0 29 0;
#X connect 29 0 30 0;
#X connect 30 0 31 0;
#X connect 30 1 32 0;
#X connect 31 0 34 0;
#X connect 33 0 0 0;
#X restore 51 53 pd brainwaves;
#X obj 653 167 s heartbeat;
#N canvas 98 23 1281 855 harmonics 0;
#X obj 205 222 tgl 15 0 empty empty empty 17 7 0 10 -262144 -1 -1 0
1;
#X obj 241 227 tgl 15 0 empty empty empty 17 7 0 10 -262144 -1 -1 0
1;
#X obj 290 226 tgl 15 0 empty empty empty 17 7 0 10 -262144 -1 -1 0
1;
#X obj 331 226 tgl 15 0 empty empty empty 17 7 0 10 -262144 -1 -1 0
1;
#X obj 415 224 tgl 15 0 empty empty empty 17 7 0 10 -262144 -1 -1 0
1;
#X obj 443 224 tgl 15 0 empty empty empty 17 7 0 10 -262144 -1 -1 0
1;
#X obj 473 225 tgl 15 0 empty empty empty 17 7 0 10 -262144 -1 -1 0
1;
#X obj 501 226 tgl 15 0 empty empty empty 17 7 0 10 -262144 -1 -1 0
1;
#X obj 603 228 tgl 15 0 empty empty empty 17 7 0 10 -262144 -1 -1 0
1;
#X obj 642 229 tgl 15 0 empty empty empty 17 7 0 10 -262144 -1 -1 0
1;
#X obj 680 230 tgl 15 0 empty empty empty 17 7 0 10 -262144 -1 -1 0
1;
#X obj 719 227 tgl 15 0 empty empty empty 17 7 0 10 -262144 -1 -1 0
1;
#X obj 762 225 tgl 15 0 empty empty empty 17 7 0 10 -262144 -1 -1 0
1;
#X obj 793 226 tgl 15 0 empty empty empty 17 7 0 10 -262144 -1 -1 0
1;
#X obj 826 226 tgl 15 0 empty empty empty 17 7 0 10 -262144 -1 -1 0
1;
#X obj 855 226 tgl 15 0 empty empty empty 17 7 0 10 -262144 -1 -1 0
1;
#X obj 502 26 tgl 15 0 empty empty empty 17 7 0 10 -262144 -1 -1 0
1;
#X obj 440 115 float;
#X obj 588 115 + 1;
#X obj 439 142 mod 16;
#X obj 410 171 hradio 15 1 0 16 empty empty empty 0 0 0 10 -262144
-1 -1 3;
#X obj 406 191 sel 0 1 2 3 4 5 6 7 8 9 10 11 12 13 14 15;
#X obj 151 253 sel 0;
#X obj 216 251 sel 0;
#X obj 274 248 sel 0;
#X obj 329 245 sel 0;
#X obj 396 251 sel 0;
#X obj 435 252 sel 0;
#X obj 473 251 sel 0;
#X obj 512 252 sel 0;
#X obj 592 254 sel 0;
#X obj 631 255 sel 0;
#X obj 669 254 sel 0;
#X obj 708 255 sel 0;
#X obj 761 257 sel 0;
#X obj 798 257 sel 0;
#X obj 836 256 sel 0;
#X obj 875 255 sel 0;
#X obj 81 351 mtof;
#X obj 129 350 mtof;
#X obj 188 349 mtof;
#X obj 239 347 mtof;
#X obj 345 349 mtof;
#X obj 379 347 mtof;
#X obj 422 347 mtof;
#X obj 459 345 mtof;
#X obj 640 354 mtof;
#X obj 685 354 mtof;
#X obj 750 357 mtof;
#X obj 814 366 mtof;
#X obj 1008 360 mtof;
#X obj 1042 358 mtof;
#X obj 1105 357 mtof;
#X obj 1163 360 mtof;
#X msg 105 287 0;
#X msg 155 287 0;
#X msg 225 285 0;
#X msg 278 284 0;
#X msg 391 280 0;
#X msg 430 281 0;
#X msg 472 280 0;
#X msg 514 280 0;
#X msg 594 284 0;
#X msg 633 285 0;
#X msg 677 285 0;
#X msg 722 286 0;
#X msg 774 284 0;
#X msg 813 285 0;
#X msg 855 284 0;
#X msg 897 284 0;
#X obj 106 418 vsl 15 64 0 1 0 0 empty empty empty 0 -9 0 10 -4032
-1 -1 0 1;
#X obj 88 540 *~;
#X obj 171 427 vsl 15 64 0 1 0 0 empty empty empty 0 -9 0 10 -262144
-1 -1 0 1;
#X obj 155 542 *~;
#X obj 242 420 vsl 15 64 0 1 0 0 empty empty empty 0 -9 0 10 -262144
-1 -1 0 1;
#X obj 218 540 *~;
#X obj 317 429 vsl 15 64 0 1 0 0 empty empty empty 0 -9 0 10 -262144
-1 -1 0 1;
#X obj 286 542 *~;
#X obj 389 443 vsl 15 64 0 1 0 0 empty empty empty 0 -9 0 10 -4032
-1 -1 0 1;
#X obj 383 554 *~;
#X obj 451 438 vsl 15 64 0 1 0 0 empty empty empty 0 -9 0 10 -262144
-1 -1 0 1;
#X obj 423 557 *~;
#X obj 523 444 vsl 15 64 0 1 0 0 empty empty empty 0 -9 0 10 -262144
-1 -1 0 1;
#X obj 481 559 *~;
#X obj 590 447 vsl 15 64 0 1 0 0 empty empty empty 0 -9 0 10 -262144
-1 -1 0 1;
#X obj 530 560 *~;
#X obj 680 435 vsl 15 64 0 1 0 0 empty empty empty 0 -9 0 10 -4032
-1 -1 0 1;
#X obj 676 549 *~;
#X obj 746 437 vsl 15 64 0 1 0 0 empty empty empty 0 -9 0 10 -262144
-1 -1 0 1;
#X obj 732 549 *~;
#X obj 824 436 vsl 15 64 0 1 0 0 empty empty empty 0 -9 0 10 -262144
-1 -1 0 1;
#X obj 777 547 *~;
#X obj 911 440 vsl 15 64 0 1 0 0 empty empty empty 0 -9 0 10 -262144
-1 -1 0 1;
#X obj 821 547 *~;
#X obj 1015 431 vsl 15 64 0 1 0 0 empty empty empty 0 -9 0 10 -4032
-1 -1 0 1;
#X obj 1014 550 *~;
#X obj 1092 435 vsl 15 64 0 1 0 0 empty empty empty 0 -9 0 10 -262144
-1 -1 0 1;
#X obj 1068 551 *~;
#X obj 1157 431 vsl 15 64 0 1 0 0 empty empty empty 0 -9 0 10 -262144
-1 -1 0 1;
#X obj 1115 550 *~;
#X obj 1245 434 vsl 15 64 0 1 0 0 empty empty empty 0 -9 0 10 -262144
-1 -1 0 1;
#X obj 1167 555 *~;
#X obj 439 88 random 500;
#X obj 159 185 r delta;
#X obj 852 78 r alpha;
#X obj 317 159 r theta;
#X obj 954 205 r beta;
#X obj 438 58 metro 1250;
#X obj 92 387 * 1;
#X msg 145 321 2;
#X obj 141 382 *;
#X msg 214 322 3;
#X obj 203 385 *;
#X obj 254 384 *;
#X msg 268 323 4;
#X msg 364 316 5;
#X obj 356 385 *;
#X msg 426 317 6;
#X obj 393 384 *;
#X msg 486 320 7;
#X obj 437 384 *;
#X msg 544 320 8;
#X obj 654 388 *;
#X obj 691 389 *;
#X obj 751 394 *;
#X obj 803 404 *;
#X obj 998 394 *;
#X obj 1035 393 *;
#X obj 1099 391 *;
#X obj 1159 396 *;
#X msg 639 325 9;
#X msg 699 328 10;
#X msg 768 330 11;
#X msg 833 338 12;
#X msg 1035 333 13;
#X msg 1084 331 14;
#X msg 1163 331 15;
#X msg 1241 335 16;
#X obj 236 45 r heartbeat;
#X floatatom 236 68 5 0 0 0 - - -;
#X obj 590 756 outlet~;
#X msg 64 320 55;
#X msg 115 321 55;
#X msg 181 321 55;
#X msg 239 323 55;
#X msg 339 315 55;
#X msg 396 319 55;
#X msg 458 318 55;
#X msg 515 318 55;
#X msg 607 325 55;
#X msg 669 326 55;
#X msg 743 330 55;
#X msg 806 338 55;
#X msg 1007 332 55;
#X msg 1061 331 55;
#X msg 1135 329 55;
#X msg 1211 335 55;
#X obj 446 5 inlet;
#X floatatom 776 755 5 0 0 0 - - -;
#X floatatom 720 699 5 0 0 0 - - -;
#X obj 61 498 phasor~;
#X obj 118 498 phasor~;
#X obj 204 502 phasor~;
#X obj 266 500 phasor~;
#X obj 354 515 phasor~;
#X obj 476 383 *;
#X obj 419 512 phasor~;
#X obj 478 517 phasor~;
#X obj 551 521 phasor~;
#X obj 635 506 phasor~;
#X obj 694 506 phasor~;
#X obj 779 508 phasor~;
#X obj 849 507 phasor~;
#X obj 972 506 phasor~;
#X obj 1054 507 phasor~;
#X obj 1121 505 phasor~;
#X obj 1207 508 phasor~;
#X obj 268 466 line;
#X obj 863 480 line;
#X msg 864 454 \$1 80;
#X msg 266 429 \$1 80;
#X obj 968 469 line;
#X msg 969 443 \$1 80;
#X obj 1047 469 line;
#X msg 1048 443 \$1 80;
#X obj 1113 466 line;
#X msg 1114 440 \$1 80;
#X obj 1190 468 line;
#X msg 1191 442 \$1 80;
#X obj 779 474 line;
#X msg 778 447 \$1 80;
#X obj 704 469 line;
#X msg 701 442 \$1 80;
#X obj 631 465 line;
#X msg 632 439 \$1 80;
#X obj 545 481 line;
#X msg 546 455 \$1 80;
#X obj 478 474 line;
#X msg 476 450 \$1 80;
#X obj 410 464 line;
#X msg 407 439 \$1 80;
#X obj 343 478 line;
#X msg 342 454 \$1 80;
#X obj 194 466 line;
#X msg 195 440 \$1 80;
#X obj 129 450 line;
#X msg 130 424 \$1 80;
#X obj 57 454 line;
#X msg 58 428 \$1 80;
#X obj 1076 725 r wekin;
#X obj 1074 663 ctlin 21;
#X obj 842 750 mknob 50 100 120 4000 0 0 empty empty empty -2 -6 0
8 -260609 -1 -1 0 1;
#X msg 717 748 \$1 300;
#X obj 717 773 line~;
#X obj 1078 690 / 127;
#X floatatom 1076 749 5 0 0 0 - - -;
#X obj 590 699 vcf~ 1.5;
#X obj 1015 601 ctlin 39;
#X obj 1076 769 * 3900;
#X obj 1027 776 + 120;
#X obj 843 723 * 4000;
#X connect 0 0 22 0;
#X connect 1 0 23 0;
#X connect 2 0 24 0;
#X connect 3 0 25 0;
#X connect 4 0 26 0;
#X connect 5 0 27 0;
#X connect 6 0 28 0;
#X connect 7 0 29 0;
#X connect 8 0 30 0;
#X connect 9 0 31 0;
#X connect 10 0 32 0;
#X connect 11 0 33 0;
#X connect 12 0 34 0;
#X connect 13 0 35 0;
#X connect 14 0 36 0;
#X connect 15 0 37 0;
#X connect 16 0 107 0;
#X connect 17 0 18 0;
#X connect 17 0 19 0;
#X connect 18 0 17 1;
#X connect 19 0 20 0;
#X connect 20 0 21 0;
#X connect 21 0 0 0;
#X connect 21 1 1 0;
#X connect 21 2 2 0;
#X connect 21 3 3 0;
#X connect 21 4 4 0;
#X connect 21 5 5 0;
#X connect 21 6 6 0;
#X connect 21 7 7 0;
#X connect 21 8 8 0;
#X connect 21 9 9 0;
#X connect 21 10 10 0;
#X connect 21 11 11 0;
#X connect 21 12 12 0;
#X connect 21 13 13 0;
#X connect 21 14 14 0;
#X connect 21 15 15 0;
#X connect 22 0 54 0;
#X connect 22 1 141 0;
#X connect 22 1 108 1;
#X connect 23 0 55 0;
#X connect 23 1 142 0;
#X connect 23 1 109 0;
#X connect 24 0 56 0;
#X connect 24 1 143 0;
#X connect 24 1 111 0;
#X connect 25 0 57 0;
#X connect 25 1 144 0;
#X connect 25 1 114 0;
#X connect 26 0 58 0;
#X connect 26 1 145 0;
#X connect 26 1 115 0;
#X connect 27 0 59 0;
#X connect 27 1 146 0;
#X connect 27 1 117 0;
#X connect 28 0 60 0;
#X connect 28 1 147 0;
#X connect 28 1 119 0;
#X connect 29 0 61 0;
#X connect 29 1 148 0;
#X connect 29 1 121 0;
#X connect 30 0 62 0;
#X connect 30 1 149 0;
#X connect 30 1 130 0;
#X connect 31 0 63 0;
#X connect 31 1 150 0;
#X connect 31 1 131 0;
#X connect 32 0 64 0;
#X connect 32 1 151 0;
#X connect 32 1 132 0;
#X connect 33 0 65 0;
#X connect 33 1 152 0;
#X connect 33 1 133 0;
#X connect 34 0 66 0;
#X connect 34 1 153 0;
#X connect 34 1 134 0;
#X connect 35 0 67 0;
#X connect 35 1 154 0;
#X connect 35 1 135 0;
#X connect 36 0 68 0;
#X connect 36 1 155 0;
#X connect 36 1 136 0;
#X connect 37 0 69 0;
#X connect 37 1 156 0;
#X connect 37 1 137 0;
#X connect 38 0 108 0;
#X connect 39 0 110 0;
#X connect 40 0 112 0;
#X connect 41 0 113 0;
#X connect 42 0 116 0;
#X connect 43 0 118 0;
#X connect 44 0 120 0;
#X connect 45 0 165 0;
#X connect 46 0 122 0;
#X connect 47 0 123 0;
#X connect 48 0 124 0;
#X connect 49 0 125 0;
#X connect 50 0 126 0;
#X connect 51 0 127 0;
#X connect 52 0 128 0;
#X connect 53 0 129 0;
#X connect 54 0 108 0;
#X connect 55 0 110 0;
#X connect 56 0 112 0;
#X connect 57 0 113 0;
#X connect 58 0 116 0;
#X connect 59 0 118 0;
#X connect 60 0 120 0;
#X connect 61 0 165 0;
#X connect 62 0 122 0;
#X connect 63 0 123 0;
#X connect 64 0 124 0;
#X connect 65 0 125 0;
#X connect 66 0 126 0;
#X connect 67 0 127 0;
#X connect 68 0 128 0;
#X connect 69 0 129 0;
#X connect 70 0 71 1;
#X connect 71 0 216 0;
#X connect 72 0 73 1;
#X connect 73 0 216 0;
#X connect 74 0 75 1;
#X connect 75 0 216 0;
#X connect 76 0 77 1;
#X connect 77 0 216 0;
#X connect 78 0 79 1;
#X connect 79 0 216 0;
#X connect 80 0 81 1;
#X connect 81 0 216 0;
#X connect 82 0 83 1;
#X connect 83 0 216 0;
#X connect 84 0 85 1;
#X connect 85 0 216 0;
#X connect 86 0 87 1;
#X connect 87 0 216 0;
#X connect 88 0 89 1;
#X connect 89 0 216 0;
#X connect 90 0 91 1;
#X connect 91 0 216 0;
#X connect 92 0 93 1;
#X connect 93 0 216 0;
#X connect 94 0 95 1;
#X connect 95 0 216 0;
#X connect 96 0 97 1;
#X connect 97 0 216 0;
#X connect 98 0 99 1;
#X connect 99 0 216 0;
#X connect 100 0 101 1;
#X connect 101 0 216 0;
#X connect 102 0 17 0;
#X connect 103 0 70 0;
#X connect 103 0 78 0;
#X connect 103 0 86 0;
#X connect 103 0 96 0;
#X connect 104 0 84 0;
#X connect 104 0 76 0;
#X connect 104 0 72 0;
#X connect 104 0 94 0;
#X connect 105 0 74 0;
#X connect 105 0 82 0;
#X connect 105 0 90 0;
#X connect 105 0 98 0;
#X connect 106 0 100 0;
#X connect 106 0 80 0;
#X connect 106 0 88 0;
#X connect 106 0 92 0;
#X connect 107 0 102 0;
#X connect 108 0 208 0;
#X connect 109 0 110 1;
#X connect 110 0 206 0;
#X connect 111 0 112 1;
#X connect 112 0 204 0;
#X connect 113 0 180 0;
#X connect 114 0 113 1;
#X connect 115 0 116 1;
#X connect 116 0 202 0;
#X connect 117 0 118 1;
#X connect 118 0 200 0;
#X connect 119 0 120 1;
#X connect 120 0 198 0;
#X connect 121 0 165 1;
#X connect 122 0 194 0;
#X connect 123 0 192 0;
#X connect 124 0 190 0;
#X connect 125 0 179 0;
#X connect 126 0 182 0;
#X connect 127 0 184 0;
#X connect 128 0 186 0;
#X connect 129 0 188 0;
#X connect 130 0 122 1;
#X connect 131 0 123 1;
#X connect 132 0 124 1;
#X connect 133 0 125 1;
#X connect 134 0 126 1;
#X connect 135 0 127 1;
#X connect 136 0 128 1;
#X connect 137 0 129 1;
#X connect 138 0 139 0;
#X connect 139 0 107 1;
#X connect 141 0 38 0;
#X connect 142 0 39 0;
#X connect 143 0 40 0;
#X connect 144 0 41 0;
#X connect 145 0 42 0;
#X connect 146 0 43 0;
#X connect 147 0 44 0;
#X connect 148 0 45 0;
#X connect 149 0 46 0;
#X connect 150 0 47 0;
#X connect 151 0 48 0;
#X connect 152 0 49 0;
#X connect 153 0 50 0;
#X connect 154 0 51 0;
#X connect 155 0 52 0;
#X connect 156 0 53 0;
#X connect 157 0 16 0;
#X connect 158 0 212 0;
#X connect 159 0 216 2;
#X connect 160 0 71 0;
#X connect 161 0 73 0;
#X connect 162 0 75 0;
#X connect 163 0 77 0;
#X connect 164 0 79 0;
#X connect 165 0 196 0;
#X connect 166 0 81 0;
#X connect 167 0 83 0;
#X connect 168 0 85 0;
#X connect 169 0 87 0;
#X connect 170 0 89 0;
#X connect 171 0 91 0;
#X connect 172 0 93 0;
#X connect 173 0 95 0;
#X connect 174 0 97 0;
#X connect 175 0 99 0;
#X connect 176 0 101 0;
#X connect 177 0 163 0;
#X connect 178 0 172 0;
#X connect 179 0 178 0;
#X connect 180 0 177 0;
#X connect 181 0 173 0;
#X connect 182 0 181 0;
#X connect 183 0 174 0;
#X connect 184 0 183 0;
#X connect 185 0 175 0;
#X connect 186 0 185 0;
#X connect 187 0 176 0;
#X connect 188 0 187 0;
#X connect 189 0 171 0;
#X connect 190 0 189 0;
#X connect 191 0 170 0;
#X connect 192 0 191 0;
#X connect 193 0 169 0;
#X connect 194 0 193 0;
#X connect 195 0 168 0;
#X connect 196 0 195 0;
#X connect 197 0 167 0;
#X connect 198 0 197 0;
#X connect 199 0 166 0;
#X connect 200 0 199 0;
#X connect 201 0 164 0;
#X connect 202 0 201 0;
#X connect 203 0 162 0;
#X connect 204 0 203 0;
#X connect 205 0 161 0;
#X connect 206 0 205 0;
#X connect 207 0 160 0;
#X connect 208 0 207 0;
#X connect 209 0 215 0;
#X connect 210 0 214 0;
#X connect 211 0 158 0;
#X connect 212 0 213 0;
#X connect 213 0 216 1;
#X connect 214 0 220 0;
#X connect 215 0 218 0;
#X connect 216 0 140 0;
#X connect 218 0 219 0;
#X connect 219 0 211 0;
#X connect 220 0 211 0;
#X restore 740 271 pd harmonics;
#N canvas 202 327 403 478 sampler1 0;
#X obj -29 136 tgl 20 0 empty empty empty 17 7 0 10 -257985 -1 -1 0
1;
#X obj -5 172 sel 0;
#X obj -52 172 sel 1;
#X obj -47 227 outlet~;
#X obj 0 118 ctlin 32;
#X obj -51 93 inlet;
#N canvas 223 348 535 435 samp1 0;
#X obj 179 -18970 t b f;
#X msg 179 -18942 1;
#X obj 192 -18911 /;
#X obj 192 -18885 phasor~;
#X obj 192 -18856 *~ 44100;
#X obj 252 -18886 * 44100;
#X obj 192 -18809 +~ 0;
#X obj 242 -18825 * 44100;
#X floatatom 253 -18852 5 0 0 0 - - -;
#X obj 242 -18993 soundfiler;
#X floatatom 242 -18972 10 0 0 0 - - -;
#X floatatom 242 -18924 5 0 0 0 - - -;
#X obj 242 -18944 / 44100;
#X obj 241 -19064 inlet;
#X obj 192 -18757 outlet~;
#X obj 5 -18964 writesf~;
#X msg 90 -19025 start;
#X msg 50 -18996 stop;
#X obj 29 -19101 inlet;
#X obj 56 -19052 del 2;
#X obj -28 -18885 clip~ -0.8 0.8;
#X obj 241 -19039 del 10;
#X obj 298 -18947 s read_file;
#X msg 292 -18915 -1;
#X obj 360 -18893 tgl 15 0 empty empty empty 17 7 0 10 -262144 -1 -1
0 1;
#X obj 384 -18865 sel 0;
#X msg -32 -19025 open sampler.wav;
#X obj 192 -18786 tabread4~ sampler;
#X obj -28 -18846 tabwrite~ sampler;
#X obj -28 -18918 adc~ 1;
#X obj 332 -18859 sel 1;
#X obj 360 -18921 ctlin 67;
#X msg 241 -19013 read -resize sampler.wav sampler;
#X msg 133 -18936 0;
#X obj 131 -18996 sel 0 1;
#X obj 140 -19087 inlet;
#X connect 0 0 1 0;
#X connect 0 1 2 1;
#X connect 1 0 2 0;
#X connect 2 0 3 0;
#X connect 3 0 4 0;
#X connect 4 0 6 0;
#X connect 5 0 4 1;
#X connect 6 0 27 0;
#X connect 7 0 6 1;
#X connect 8 0 7 0;
#X connect 9 0 10 0;
#X connect 10 0 12 0;
#X connect 10 0 22 0;
#X connect 11 0 0 0;
#X connect 11 0 5 0;
#X connect 12 0 11 0;
#X connect 13 0 21 0;
#X connect 13 0 17 0;
#X connect 16 0 15 0;
#X connect 16 0 28 0;
#X connect 17 0 15 0;
#X connect 17 0 28 0;
#X connect 18 0 19 0;
#X connect 18 0 26 0;
#X connect 19 0 16 0;
#X connect 20 0 15 0;
#X connect 20 0 28 0;
#X connect 21 0 32 0;
#X connect 23 0 2 0;
#X connect 24 0 25 0;
#X connect 24 0 30 0;
#X connect 25 0 1 0;
#X connect 26 0 15 0;
#X connect 27 0 14 0;
#X connect 29 0 20 0;
#X connect 30 0 23 0;
#X connect 31 0 24 0;
#X connect 32 0 9 0;
#X connect 33 0 2 0;
#X connect 34 0 33 0;
#X connect 34 1 1 0;
#X connect 35 0 34 0;
#X restore -47 200 pd samp1;
#X obj 145 114 ctlin 48;
#X obj 145 148 sel 1;
#X obj 145 177 s b1;
#X connect 0 0 1 0;
#X connect 0 0 2 0;
#X connect 1 0 6 2;
#X connect 2 0 6 0;
#X connect 4 0 0 0;
#X connect 5 0 6 1;
#X connect 6 0 3 0;
#X connect 7 0 8 0;
#X connect 8 0 9 0;
#X restore 44 270 pd sampler1;
#X obj 44 213 ctlin 63;
#X obj 44 236 tgl 30 0 empty empty empty 17 7 0 10 -260097 -1 -1 0
1;
#X obj 140 431 *~;
#X obj 172 321 vsl 15 120 0 1 0 0 empty s2 empty 0 -9 0 10 -94434 -228856
-228856 0 1;
#N canvas 753 259 462 496 sampler2 0;
#X obj 185 186 tgl 20 0 empty empty empty 17 7 0 10 -257985 -1 -1 0
1;
#X obj 142 218 sel 1;
#X obj 186 217 sel 0;
#X obj 144 281 outlet~;
#X obj 177 158 ctlin 33;
#X obj 76 159 inlet;
#N canvas 669 303 547 489 samp2 0;
#X obj 189 -18867 t b f;
#X msg 191 -18840 1;
#X obj 202 -18808 /;
#X obj 202 -18782 phasor~;
#X obj 202 -18753 *~ 44100;
#X obj 256 -18887 * 44100;
#X obj 202 -18706 +~ 0;
#X obj 246 -18826 * 44100;
#X floatatom 257 -18853 5 0 0 0 - - -;
#X obj 246 -18994 soundfiler;
#X floatatom 246 -18973 10 0 0 0 - - -;
#X floatatom 246 -18925 5 0 0 0 - - -;
#X obj 246 -18945 / 44100;
#X obj 245 -19065 inlet;
#X obj 202 -18654 outlet~;
#X obj 5 -18964 writesf~;
#X msg 103 -19002 start;
#X msg 30 -18994 stop;
#X obj 76 -19068 inlet;
#X obj 103 -19040 del 2;
#X obj -28 -18885 clip~ -0.8 0.8;
#X obj 245 -19040 del 10;
#X obj 302 -18948 s read_file;
#X msg 296 -18916 -1;
#X obj 364 -18894 tgl 15 0 empty empty empty 17 7 0 10 -262144 -1 -1
0 1;
#X obj 388 -18866 sel 0;
#X msg 245 -19014 read -resize sampler2.wav sampler2;
#X msg -32 -19026 open sampler2.wav;
#X obj 202 -18683 tabread4~ sampler2;
#X obj -26 -18844 tabwrite~ sampler2;
#X obj 335 -18866 sel 1;
#X obj 364 -18916 ctlin 68;
#X obj -28 -18918 adc~ 1;
#X obj 172 -19057 inlet;
#X obj 161 -18942 sel 0 1;
#X msg 147 -18838 0;
#X connect 0 0 1 0;
#X connect 0 1 2 1;
#X connect 1 0 2 0;
#X connect 2 0 3 0;
#X connect 3 0 4 0;
#X connect 4 0 6 0;
#X connect 5 0 4 1;
#X connect 6 0 28 0;
#X connect 7 0 6 1;
#X connect 8 0 7 0;
#X connect 9 0 10 0;
#X connect 10 0 12 0;
#X connect 10 0 22 0;
#X connect 11 0 0 0;
#X connect 11 0 5 0;
#X connect 12 0 11 0;
#X connect 13 0 17 0;
#X connect 13 0 21 0;
#X connect 16 0 15 0;
#X connect 16 0 29 0;
#X connect 17 0 15 0;
#X connect 17 0 29 0;
#X connect 18 0 19 0;
#X connect 18 0 27 0;
#X connect 19 0 16 0;
#X connect 20 0 15 0;
#X connect 20 0 29 0;
#X connect 21 0 26 0;
#X connect 23 0 2 0;
#X connect 24 0 25 0;
#X connect 24 0 30 0;
#X connect 25 0 1 0;
#X connect 26 0 9 0;
#X connect 27 0 15 0;
#X connect 28 0 14 0;
#X connect 30 0 23 0;
#X connect 31 0 24 0;
#X connect 32 0 20 0;
#X connect 33 0 34 0;
#X connect 34 0 35 0;
#X connect 34 1 1 0;
#X connect 35 0 2 0;
#X restore 144 245 pd samp2;
#X obj 330 172 ctlin 49;
#X obj 330 204 sel 1;
#X obj 330 235 s b2;
#X connect 0 0 1 0;
#X connect 0 0 2 0;
#X connect 1 0 6 0;
#X connect 2 0 6 2;
#X connect 4 0 0 0;
#X connect 5 0 6 1;
#X connect 6 0 3 0;
#X connect 7 0 8 0;
#X connect 8 0 9 0;
#X restore 140 270 pd sampler2;
#X obj 140 236 tgl 30 0 empty empty empty 17 7 0 10 -260097 -1 -1 0
1;
#X obj 140 213 ctlin 64;
#X obj 238 431 *~;
#X obj 270 321 vsl 15 120 0 1 0 0 empty s3 empty 0 -9 0 10 -114921
-228856 -228856 0 1;
#N canvas 740 85 450 300 sampler3 0;
#X obj -16 98 tgl 20 0 empty empty empty 17 7 0 10 -257985 -1 -1 0
1;
#X obj 8 134 sel 0;
#X obj -39 134 sel 1;
#X obj -34 189 outlet~;
#X obj -56 71 inlet;
#N canvas 794 408 535 435 samp3 0;
#X obj 222 162 t b f;
#X msg 222 190 1;
#X obj 235 221 /;
#X obj 235 247 phasor~;
#X obj 235 276 *~ 44100;
#X obj 295 246 * 44100;
#X obj 235 323 +~ 0;
#X obj 285 307 * 44100;
#X floatatom 296 280 5 0 0 0 - - -;
#X obj 285 139 soundfiler;
#X floatatom 285 160 10 0 0 0 - - -;
#X floatatom 285 208 5 0 0 0 - - -;
#X obj 285 188 / 44100;
#X obj 284 68 inlet;
#X obj 235 375 outlet~;
#X obj 48 168 writesf~;
#X msg 133 107 start;
#X msg 93 136 stop;
#X obj 72 31 inlet;
#X obj 99 80 del 2;
#X obj 15 247 clip~ -0.8 0.8;
#X obj 284 93 del 10;
#X obj 341 185 s read_file;
#X msg 335 217 -1;
#X obj 403 239 tgl 15 0 empty empty empty 17 7 0 10 -262144 -1 -1 0
1;
#X obj 427 267 sel 0;
#X obj 15 214 adc~ 1;
#X obj 375 273 sel 1;
#X obj 403 211 ctlin 67;
#X msg 176 196 0;
#X obj 174 136 sel 0 1;
#X obj 183 45 inlet;
#X obj 15 286 tabwrite~ sampler3;
#X obj 236 346 tabread4~ sampler3;
#X msg 11 107 open sampler3.wav;
#X msg 284 119 read -resize sampler3.wav sampler3;
#X connect 0 0 1 0;
#X connect 0 1 2 1;
#X connect 1 0 2 0;
#X connect 2 0 3 0;
#X connect 3 0 4 0;
#X connect 4 0 6 0;
#X connect 5 0 4 1;
#X connect 6 0 33 0;
#X connect 7 0 6 1;
#X connect 8 0 7 0;
#X connect 9 0 10 0;
#X connect 10 0 12 0;
#X connect 10 0 22 0;
#X connect 11 0 0 0;
#X connect 11 0 5 0;
#X connect 12 0 11 0;
#X connect 13 0 21 0;
#X connect 13 0 17 0;
#X connect 16 0 15 0;
#X connect 16 0 32 0;
#X connect 17 0 15 0;
#X connect 17 0 32 0;
#X connect 18 0 19 0;
#X connect 18 0 34 0;
#X connect 19 0 16 0;
#X connect 20 0 15 0;
#X connect 20 0 32 0;
#X connect 21 0 35 0;
#X connect 23 0 2 0;
#X connect 24 0 25 0;
#X connect 24 0 27 0;
#X connect 25 0 1 0;
#X connect 26 0 20 0;
#X connect 27 0 23 0;
#X connect 28 0 24 0;
#X connect 29 0 2 0;
#X connect 30 0 29 0;
#X connect 30 1 1 0;
#X connect 31 0 30 0;
#X connect 33 0 14 0;
#X connect 34 0 15 0;
#X connect 35 0 9 0;
#X restore -31 163 pd samp3;
#X obj 13 80 ctlin 34;
#X obj 127 82 ctlin 50;
#X obj 127 113 sel 1;
#X obj 127 145 s b3;
#X connect 0 0 1 0;
#X connect 0 0 2 0;
#X connect 1 0 5 2;
#X connect 2 0 5 0;
#X connect 4 0 5 1;
#X connect 5 0 3 0;
#X connect 6 0 0 0;
#X connect 7 0 8 0;
#X connect 8 0 9 0;
#X restore 237 270 pd sampler3;
#X obj 237 236 tgl 30 0 empty empty empty 17 7 0 10 -260097 -1 -1 0
1;
#X obj 237 213 ctlin 65;
#N canvas 0 22 450 278 (subpatch) 0;
#X array sampler2 119680 float 2;
#X coords 0 1 119680 -1 200 140 1;
#X restore 1184 353 graph;
#N canvas 0 22 450 278 (subpatch) 0;
#X array sampler3 201728 float 2;
#X coords 0 1 201728 -1 200 140 1;
#X restore 1184 497 graph;
#N canvas 0 22 450 278 (subpatch) 0;
#X array sampler 170560 float 2;
#X coords 0 1 170560 -1 200 140 1;
#X restore 1184 209 graph;
#X obj 329 431 *~;
#X obj 355 321 vsl 15 120 0 1 0 0 empty s4 empty 0 -9 0 10 -123116
-228856 -228856 0 1;
#X obj 427 432 *~;
#X obj 455 322 vsl 15 120 0 1 0 0 empty s5 empty 0 -9 0 10 -148270
-228856 -228856 0 1;
#X obj 525 432 *~;
#X obj 557 322 vsl 15 120 0 1 0 0 empty s6 empty 0 -9 0 10 -164978
-228856 -228856 0 1;
#X obj 622 432 *~;
#X obj 655 322 vsl 15 120 0 0.6 0 0 empty s7 empty 0 -9 0 10 -193853
-228856 -228856 0 1;
#X obj 725 432 *~;
#X obj 762 322 vsl 15 120 0 0.5 0 0 empty s8 empty 0 -9 0 10 -176192
-228856 -228856 0 1;
#X obj 51 76 loadbang;
#X obj 51 99 delay 100;
#X obj 51 122 tgl 15 0 empty empty empty 0 -6 0 8 -262144 -1 -1 1 1
;
#X msg 51 141 \; pd dsp \$1;
#X obj 740 237 tgl 30 0 empty empty empty 17 7 0 10 -260097 -1 -1 0
1;
#X obj 740 214 ctlin 70;
#X obj 403 524 freeverb~;
#X msg 546 520 roomsize 0.23;
#X obj 403 692 dac~;
#X obj 330 236 tgl 30 0 empty empty empty 17 7 0 10 -260097 -1 -1 0
1;
#X obj 330 213 ctlin 66;
#X obj 530 101 ctlin 67;
#X obj 70 124 s bang;
#X obj 565 495 r bang;
#X obj 600 3 udpreceive 8321;
#X obj 275 616 s ss;
#X obj 182 586 s gs;
#X obj 91 550 s gl;
#X obj 275 577 mknob 35 100 -5 5 0 0 empty sampSpeed Sample_Speed 20
-10 0 10 -135168 -1 -258112 0 1;
#X obj 109 508 mknob 35 100 0 4100 0 0 empty grainLength Grain_Length
20 -10 0 10 -135168 -1 -258112 0 1;
#X obj 403 547 +~;
#X obj 436 572 delwrite~ dilay 3000;
#X obj 598 611 delread~ dilay 250;
#X obj 598 634 *~;
#X obj 662 647 nbx 5 14 0 0.99 0 0 empty feedBack FeedBack 0 -8 0 14
-262144 -1 -258112 0 256;
#X obj 598 591 * 3000;
#X obj 599 47 routeOSC /heart;
#X obj 600 23 unpackOSC;
#X obj 403 669 *~;
#X obj 460 636 mknob 50 100 0 1 0 0 empty master MASTER 20 -10 0 10
-258049 -1 -258112 9822 1;
#N canvas 121 101 1129 777 fmSequencer 0;
#X obj 94 239 osc~;
#X obj 94 187 *~ 0.5;
#X obj 94 151 line~;
#X msg 94 134 \$1 \, 0.5 40;
#X obj 94 115 r ratio;
#X obj 94 268 *~;
#X obj 136 261 line~;
#X obj 174 54 r index;
#X obj 24 189 phasor~;
#X obj 24 117 loadbang;
#X msg 24 153 216;
#X obj 60 297 +~;
#X obj 60 322 cos~;
#X obj 364 364 f;
#X obj 424 364 f;
#X obj 486 364 f;
#X obj 546 364 f;
#X obj 592 364 f;
#X obj 653 363 f;
#X obj 592 364 f;
#X obj 716 363 f;
#X obj 775 363 f;
#X floatatom 364 331 5 0 25 0 - k1 -;
#X floatatom 424 331 5 0 25 0 - k2 -;
#X floatatom 486 331 5 0 25 0 - k3 -;
#X floatatom 546 331 5 0 25 0 - k4 -;
#X floatatom 611 331 5 0 25 0 - k5 -;
#X floatatom 668 331 5 0 25 0 - k6 -;
#X floatatom 728 329 5 0 25 0 - k7 -;
#X floatatom 789 330 5 0 0 0 - k8 -;
#X obj 365 483 f;
#X obj 433 484 f;
#X obj 487 483 f;
#X obj 547 483 f;
#X obj 593 485 f;
#X obj 651 485 f;
#X obj 593 485 f;
#X obj 717 484 f;
#X obj 774 485 f;
#X floatatom 380 449 5 0 10 0 - k9 -;
#X floatatom 448 450 5 0 10 0 - k10 -;
#X floatatom 502 449 5 0 10 0 - k11 -;
#X floatatom 561 450 5 0 10 0 - k12 -;
#X floatatom 612 450 5 0 10 0 - k13 -;
#X floatatom 672 450 5 0 10 0 - k14 -;
#X floatatom 735 453 5 0 10 0 - k15 -;
#X floatatom 800 450 5 0 10 0 - k16 -;
#X obj 343 296 bng 15 250 50 0 empty empty empty 17 7 0 10 -262144
-1 -1;
#X obj 403 296 bng 15 250 50 0 empty empty empty 17 7 0 10 -262144
-1 -1;
#X obj 465 296 bng 15 250 50 0 empty empty empty 17 7 0 10 -262144
-1 -1;
#X obj 525 296 bng 15 250 50 0 empty empty empty 17 7 0 10 -262144
-1 -1;
#X obj 590 296 bng 15 250 50 0 empty empty empty 17 7 0 10 -262144
-1 -1;
#X obj 653 296 bng 15 250 50 0 empty empty empty 17 7 0 10 -262144
-1 -1;
#X obj 716 296 bng 15 250 50 0 empty empty empty 17 7 0 10 -262144
-1 -1;
#X obj 775 296 bng 15 250 50 0 empty empty empty 17 7 0 10 -262144
-1 -1;
#X obj 461 132 tgl 15 0 empty empty empty 17 7 0 10 -262144 -1 -1 0
1;
#X obj 498 174 metro;
#X obj 498 197 f;
#X obj 537 196 + 1;
#X floatatom 498 246 5 0 0 0 - - -;
#X obj 498 265 sel 0 1 2 3 4 5 6 7;
#X obj 525 128 expr 60/$f1*1000;
#X obj 525 153 / 4;
#X obj 357 426 t b;
#X obj 419 424 t b;
#X obj 482 427 t b;
#X obj 545 426 t b;
#X obj 592 426 t b;
#X obj 653 423 t b;
#X obj 716 422 t b;
#X obj 777 422 t b;
#X obj 538 559 s index;
#X obj 556 401 s ratio;
#X msg 718 234 1;
#X obj 720 207 loadbang;
#X obj 63 403 outlet~;
#X obj 646 88 inlet;
#X floatatom 531 100 5 0 0 0 - - -;
#X obj 430 103 ctlin 67;
#X obj 498 222 mod 8;
#X obj 876 240 ctlin 22;
#X obj 603 217 mknob 25 100 0 25 0 0 empty empty empty -2 -6 0 8 -262144
-1 -1 0 1;
#X obj 277 99 r alpha;
#X obj 277 123 * 1000;
#X floatatom 277 147 5 0 0 0 - - -;
#X obj 209 96 ctlin 39;
#X obj 209 126 tgl 15 0 empty empty empty 17 7 0 10 -262144 -1 -1 0
1;
#X floatatom 202 173 5 0 0 0 - - -;
#X obj 203 147 gate 2 1;
#X obj 175 196 pack f f;
#X msg 136 237 \$1 \$2;
#X obj 862 273 / 127;
#X obj 862 297 * 25;
#X floatatom 911 553 5 0 0 0 - - -;
#X obj 911 505 r beta;
#X obj 805 523 ctlin 39;
#X obj 805 553 tgl 15 0 empty empty empty 17 7 0 10 -262144 -1 -1 0
1;
#X obj 799 574 gate 2 1;
#X floatatom 799 598 5 0 0 0 - - -;
#X obj 912 529 * 20;
#X floatatom 254 531 5 0 0 0 - - -;
#X obj 148 501 ctlin 39;
#X obj 148 531 tgl 15 0 empty empty empty 17 7 0 10 -262144 -1 -1 0
1;
#X obj 142 552 gate 2 1;
#X floatatom 142 576 5 0 0 0 - - -;
#X obj 255 507 * 20;
#X obj 254 483 r delta;
#X obj 842 413 random 9;
#X obj 285 401 random 9;
#X obj 283 371 r random;
#X obj 843 374 r random;
#X obj 289 325 random 9;
#X obj 289 303 r random;
#X connect 0 0 5 0;
#X connect 1 0 0 0;
#X connect 2 0 1 0;
#X connect 3 0 2 0;
#X connect 4 0 3 0;
#X connect 5 0 11 1;
#X connect 6 0 5 1;
#X connect 7 0 89 0;
#X connect 8 0 11 0;
#X connect 9 0 10 0;
#X connect 10 0 8 0;
#X connect 10 0 1 1;
#X connect 11 0 12 0;
#X connect 12 0 75 0;
#X connect 13 0 63 0;
#X connect 13 0 72 0;
#X connect 14 0 64 0;
#X connect 14 0 72 0;
#X connect 15 0 65 0;
#X connect 15 0 72 0;
#X connect 16 0 66 0;
#X connect 16 0 72 0;
#X connect 17 0 67 0;
#X connect 17 0 72 0;
#X connect 18 0 68 0;
#X connect 18 0 72 0;
#X connect 20 0 69 0;
#X connect 20 0 72 0;
#X connect 21 0 70 0;
#X connect 21 0 72 0;
#X connect 22 0 13 1;
#X connect 23 0 14 1;
#X connect 24 0 15 1;
#X connect 25 0 16 1;
#X connect 26 0 17 1;
#X connect 27 0 18 1;
#X connect 28 0 20 1;
#X connect 29 0 21 1;
#X connect 30 0 71 0;
#X connect 31 0 71 0;
#X connect 32 0 71 0;
#X connect 33 0 71 0;
#X connect 34 0 71 0;
#X connect 35 0 71 0;
#X connect 37 0 71 0;
#X connect 38 0 71 0;
#X connect 39 0 30 1;
#X connect 40 0 31 1;
#X connect 41 0 32 1;
#X connect 42 0 33 1;
#X connect 43 0 34 1;
#X connect 44 0 35 1;
#X connect 45 0 37 1;
#X connect 46 0 38 1;
#X connect 47 0 13 0;
#X connect 48 0 14 0;
#X connect 49 0 15 0;
#X connect 50 0 16 0;
#X connect 51 0 17 0;
#X connect 52 0 18 0;
#X connect 53 0 20 0;
#X connect 54 0 21 0;
#X connect 55 0 56 0;
#X connect 56 0 57 0;
#X connect 57 0 58 0;
#X connect 57 0 79 0;
#X connect 58 0 57 1;
#X connect 59 0 60 0;
#X connect 60 0 47 0;
#X connect 60 1 48 0;
#X connect 60 2 49 0;
#X connect 60 3 50 0;
#X connect 60 4 51 0;
#X connect 60 5 52 0;
#X connect 60 6 53 0;
#X connect 60 7 54 0;
#X connect 61 0 62 0;
#X connect 62 0 56 1;
#X connect 63 0 30 0;
#X connect 64 0 31 0;
#X connect 65 0 32 0;
#X connect 66 0 33 0;
#X connect 67 0 34 0;
#X connect 68 0 35 0;
#X connect 69 0 37 0;
#X connect 70 0 38 0;
#X connect 73 0 13 1;
#X connect 73 0 14 1;
#X connect 73 0 15 1;
#X connect 73 0 16 1;
#X connect 73 0 17 1;
#X connect 73 0 18 1;
#X connect 73 0 20 1;
#X connect 73 0 21 1;
#X connect 73 0 30 1;
#X connect 73 0 31 1;
#X connect 73 0 32 1;
#X connect 73 0 33 1;
#X connect 73 0 34 1;
#X connect 73 0 35 1;
#X connect 73 0 37 1;
#X connect 73 0 38 1;
#X connect 74 0 73 0;
#X connect 76 0 77 0;
#X connect 77 0 61 0;
#X connect 78 0 55 0;
#X connect 79 0 59 0;
#X connect 80 0 91 0;
#X connect 81 0 13 1;
#X connect 81 0 17 1;
#X connect 81 0 14 1;
#X connect 82 0 83 0;
#X connect 83 0 84 0;
#X connect 84 0 88 1;
#X connect 85 0 86 0;
#X connect 86 0 88 0;
#X connect 87 0 89 1;
#X connect 88 0 87 0;
#X connect 89 0 90 0;
#X connect 90 0 6 0;
#X connect 91 0 92 0;
#X connect 92 0 81 0;
#X connect 93 0 97 1;
#X connect 94 0 99 0;
#X connect 95 0 96 0;
#X connect 96 0 97 0;
#X connect 97 0 98 0;
#X connect 98 0 37 1;
#X connect 98 0 32 1;
#X connect 99 0 93 0;
#X connect 100 0 103 1;
#X connect 101 0 102 0;
#X connect 102 0 103 0;
#X connect 103 0 104 0;
#X connect 104 0 30 1;
#X connect 104 0 33 1;
#X connect 104 0 35 1;
#X connect 105 0 100 0;
#X connect 106 0 105 0;
#X connect 107 0 38 1;
#X connect 107 0 33 1;
#X connect 107 0 35 1;
#X connect 107 0 16 1;
#X connect 108 0 30 1;
#X connect 109 0 108 0;
#X connect 110 0 107 0;
#X connect 111 0 31 1;
#X connect 111 0 15 1;
#X connect 112 0 111 0;
#X restore 621 273 pd fmSequencer;
#X msg 484 521 dry 0.4;
#X msg 485 546 wet 0.6;
#X obj 1166 152 udpsend;
#X msg 1211 122 connect 127.0.0.1 15000;
#X obj 1136 74 packOSC;
#X obj 1136 49 r data;
#X msg 1210 94 disconnect;
#X floatatom 333 721 5 0 0 0 - - -;
#X obj 246 642 ctlin 39;
#X obj 245 685 gate 2 1;
#X floatatom 245 709 5 0 0 0 - - -;
#X obj 245 666 tgl 15 0 empty empty empty 17 7 0 10 -262144 -1 -1 0
1;
#X obj 337 650 r theta;
#X floatatom 929 153 5 0 0 0 - - -;
#X obj 904 130 ctlin 39;
#X obj 870 178 gate 2 1;
#X floatatom 870 202 5 0 0 0 - - -;
#X obj 906 158 tgl 15 0 empty empty empty 17 7 0 10 -262144 -1 -1 0
1;
#X obj 928 79 r delta;
#X obj 870 225 s gspeed;
#X obj 929 103 * 256;
#X obj 683 220 s tempo;
#N canvas 159 173 846 569 oscMidi 0;
#X obj 221 37 unpackOSC;
#X obj 221 60 routeOSC /box;
#X floatatom 163 124 5 0 0 0 - - -;
#X floatatom 221 106 5 0 0 0 - - -;
#X floatatom 265 107 5 0 0 0 - - -;
#X floatatom 302 107 5 0 0 0 - - -;
#X floatatom 344 107 5 0 0 0 - - -;
#X floatatom 390 126 5 0 0 0 - - -;
#X obj 221 151 s heartPitch;
#X obj 390 148 s push;
#X obj 265 129 s e1;
#X obj 302 129 s e2;
#X obj 344 129 s e3;
#X obj 390 107 bng 15 250 50 0 empty empty empty 17 7 0 10 -262144
-1 -1;
#X obj 221 83 unpack f f f f f f;
#X obj 221 14 udpreceive 7981;
#X obj 221 128 * 1.6;
#X obj 62 213 / 127;
#X obj 43 190 ctlin 0;
#X obj 160 213 / 127;
#X obj 141 190 ctlin 1;
#X obj 258 213 / 127;
#X obj 239 190 ctlin 2;
#X obj 345 214 / 127;
#X obj 324 190 ctlin 3;
#X obj 447 214 / 127;
#X obj 545 214 / 127;
#X obj 643 214 / 127;
#X obj 750 214 / 127;
#X obj 447 193 ctlin 4;
#X obj 526 191 ctlin 5;
#X obj 624 191 ctlin 6;
#X obj 731 191 ctlin 7;
#X obj 62 237 s s1;
#X obj 160 237 s s2;
#X obj 258 237 s s3;
#X obj 345 238 s s4;
#X obj 447 238 s s5;
#X obj 545 238 s s6;
#X obj 643 238 s s7;
#X obj 750 238 s s8;
#X obj 379 461 ctlin 23;
#X obj 379 484 / 127;
#X obj 379 507 *;
#X obj 379 531 s master;
#X obj 294 279 ctlin 19;
#X obj 376 277 ctlin 20;
#X obj 376 300 / 127;
#X obj 294 302 / 127;
#X obj 294 326 s eco;
#X obj 376 324 s feedBack;
#X obj 43 275 ctlin 16;
#X obj 140 270 ctlin 17;
#X obj 225 279 ctlin 18;
#X obj 42 308 / 127;
#X obj 42 331 *;
#X obj 41 388 s grainLength;
#X obj 42 359 * 4100;
#X obj 140 291 / 127;
#X obj 140 315 *;
#X obj 224 307 / 127;
#X obj 224 331 *;
#X obj 224 355 * 10;
#X obj 224 379 - 5;
#X obj 225 403 s sampSpeed;
#X obj 140 340 * 4100;
#X obj 141 387 s grainSpeed;
#X obj 283 461 ctlin 22;
#X obj 283 485 / 127;
#X obj 283 509 prepend /k6;
#X obj 283 533 s data;
#X obj 543 376 / 127;
#X obj 543 424 s data;
#X obj 543 352 ctlin 6;
#X obj 543 400 prepend /s7;
#X obj 703 344 ctlin 45;
#X obj 703 395 s random;
#X obj 702 367 bng 15 250 50 0 empty empty empty 17 7 0 10 -262144
-1 -1;
#X connect 0 0 1 0;
#X connect 1 0 14 0;
#X connect 3 0 16 0;
#X connect 4 0 10 0;
#X connect 5 0 11 0;
#X connect 6 0 12 0;
#X connect 7 0 9 0;
#X connect 14 0 2 0;
#X connect 14 1 3 0;
#X connect 14 2 4 0;
#X connect 14 3 5 0;
#X connect 14 4 6 0;
#X connect 14 5 7 0;
#X connect 14 5 13 0;
#X connect 15 0 0 0;
#X connect 16 0 8 0;
#X connect 17 0 33 0;
#X connect 18 0 17 0;
#X connect 19 0 34 0;
#X connect 20 0 19 0;
#X connect 21 0 35 0;
#X connect 22 0 21 0;
#X connect 23 0 36 0;
#X connect 24 0 23 0;
#X connect 25 0 37 0;
#X connect 26 0 38 0;
#X connect 27 0 39 0;
#X connect 28 0 40 0;
#X connect 29 0 25 0;
#X connect 30 0 26 0;
#X connect 31 0 27 0;
#X connect 32 0 28 0;
#X connect 41 0 42 0;
#X connect 42 0 43 0;
#X connect 42 0 43 1;
#X connect 43 0 44 0;
#X connect 45 0 48 0;
#X connect 46 0 47 0;
#X connect 47 0 50 0;
#X connect 48 0 49 0;
#X connect 51 0 54 0;
#X connect 52 0 58 0;
#X connect 53 0 60 0;
#X connect 54 0 55 0;
#X connect 54 0 55 1;
#X connect 55 0 57 0;
#X connect 57 0 56 0;
#X connect 58 0 59 0;
#X connect 58 0 59 1;
#X connect 59 0 65 0;
#X connect 60 0 61 0;
#X connect 60 0 61 1;
#X connect 61 0 62 0;
#X connect 62 0 63 0;
#X connect 63 0 64 0;
#X connect 65 0 66 0;
#X connect 67 0 68 0;
#X connect 68 0 69 0;
#X connect 69 0 70 0;
#X connect 71 0 74 0;
#X connect 73 0 71 0;
#X connect 74 0 72 0;
#X connect 75 0 77 0;
#X connect 77 0 76 0;
#X restore 435 50 pd oscMidi;
#X obj 598 570 r eco;
#X floatatom 650 590 5 0 0 0 - - -;
#X floatatom 310 615 5 0 0 0 - - -;
#X obj 201 537 mknob 35 100 0 4100 0 0 empty grainSpeed Grain_Speed
20 -10 0 10 -135168 -1 -258112 0 1;
#X floatatom 218 587 5 0 0 0 - - -;
#X obj 338 674 * 10;
#X obj 340 698 - 5;
#X connect 0 0 3 0;
#X connect 0 0 73 0;
#X connect 1 0 8 0;
#X connect 1 0 10 0;
#X connect 1 0 95 0;
#X connect 2 0 1 0;
#X connect 3 0 7 0;
#X connect 3 0 15 0;
#X connect 4 0 2 0;
#X connect 4 0 6 0;
#X connect 5 0 1 2;
#X connect 6 0 5 0;
#X connect 7 0 2 1;
#X connect 8 0 35 0;
#X connect 10 0 37 0;
#X connect 11 0 33 0;
#X connect 12 0 49 0;
#X connect 13 0 12 1;
#X connect 16 0 41 0;
#X connect 17 0 12 0;
#X connect 18 0 19 0;
#X connect 19 0 17 0;
#X connect 20 0 49 1;
#X connect 21 0 20 1;
#X connect 22 0 20 0;
#X connect 23 0 22 0;
#X connect 24 0 23 0;
#X connect 25 0 49 0;
#X connect 26 0 25 1;
#X connect 27 0 25 0;
#X connect 28 0 27 0;
#X connect 29 0 28 0;
#X connect 33 0 49 0;
#X connect 33 0 49 1;
#X connect 34 0 33 1;
#X connect 35 0 49 0;
#X connect 36 0 35 1;
#X connect 37 0 49 0;
#X connect 38 0 37 1;
#X connect 39 0 49 0;
#X connect 40 0 39 1;
#X connect 41 0 49 0;
#X connect 41 0 49 1;
#X connect 42 0 41 1;
#X connect 43 0 44 0;
#X connect 44 0 45 0;
#X connect 44 0 55 0;
#X connect 45 0 46 0;
#X connect 47 0 16 0;
#X connect 48 0 47 0;
#X connect 49 0 63 0;
#X connect 50 0 49 0;
#X connect 52 0 11 0;
#X connect 53 0 52 0;
#X connect 54 0 4 0;
#X connect 56 0 50 0;
#X connect 56 0 74 0;
#X connect 56 0 75 0;
#X connect 57 0 70 0;
#X connect 61 0 58 0;
#X connect 61 0 99 0;
#X connect 62 0 60 0;
#X connect 63 0 64 0;
#X connect 63 0 71 0;
#X connect 65 0 66 0;
#X connect 66 0 63 1;
#X connect 67 0 66 1;
#X connect 68 0 65 0;
#X connect 68 0 98 0;
#X connect 69 0 0 0;
#X connect 70 0 69 0;
#X connect 71 0 51 1;
#X connect 71 0 51 0;
#X connect 72 0 71 1;
#X connect 73 0 39 0;
#X connect 74 0 49 0;
#X connect 75 0 49 0;
#X connect 77 0 76 0;
#X connect 78 0 76 0;
#X connect 79 0 78 0;
#X connect 80 0 76 0;
#X connect 81 0 83 1;
#X connect 82 0 85 0;
#X connect 83 0 84 0;
#X connect 84 0 61 0;
#X connect 85 0 83 0;
#X connect 86 0 102 0;
#X connect 87 0 89 1;
#X connect 88 0 91 0;
#X connect 89 0 90 0;
#X connect 90 0 93 0;
#X connect 91 0 89 0;
#X connect 92 0 94 0;
#X connect 94 0 87 0;
#X connect 97 0 68 0;
#X connect 100 0 59 0;
#X connect 100 0 101 0;
#X connect 102 0 103 0;
#X connect 103 0 81 0;
